<svg width="20" height="20" viewBox="0 0 20 20" fill="none" xmlns="http://www.w3.org/2000/svg">
<path d="M10.11 0C10.4522 0.0710924 10.7596 0.194918 10.9799 0.491397C11.1494 0.719517 11.2357 0.970294 11.2404 1.24763C11.2475 1.66364 11.2467 2.08004 11.2412 2.49644C11.2318 3.19017 10.674 3.74758 9.99514 3.74915C9.30882 3.75071 8.75493 3.20033 8.74477 2.49917C8.73891 2.1023 8.75102 1.70544 8.74204 1.30896C8.7268 0.639441 9.22875 0.0769516 9.82209 0.0207027C9.84045 0.0191402 9.85803 0.00703111 9.876 0C9.95373 0 10.0319 0 10.11 0Z" fill="#130F26"/>
<path d="M9.87564 19.9996C9.43073 19.9219 9.06511 19.7211 8.87879 19.2922C8.8034 19.1184 8.75848 18.9203 8.74949 18.7309C8.73035 18.3285 8.7409 17.9247 8.74442 17.5215C8.75067 16.8157 9.30651 16.2512 9.99205 16.2509C10.6834 16.2501 11.2354 16.8094 11.2416 17.5215C11.2451 17.9118 11.235 18.3024 11.244 18.6922C11.2588 19.3414 10.7776 19.9125 10.1823 19.973C10.1577 19.9754 10.1342 19.9906 10.11 20C10.0319 19.9996 9.95377 19.9996 9.87564 19.9996Z" fill="#130F26"/>
<path d="M10.012 14.9989C7.24601 15.0009 4.9941 12.7599 4.99371 10.0053C4.99332 7.25336 7.23859 5.00145 9.98346 5.00067C12.7459 4.99989 14.9986 7.24438 14.9904 10.0045C14.9822 12.7677 12.7643 14.9763 10.012 14.9989ZM9.99948 13.1329C11.1573 13.0747 12.0662 12.5982 12.6557 11.6142C13.3264 10.4935 13.2947 9.34434 12.5787 8.25998C11.9815 7.35531 11.1002 6.90688 9.99948 6.87368C9.99948 8.96388 9.99948 11.0299 9.99948 13.1329Z" fill="#130F26"/>
<path d="M17.4247 3.81201C17.4387 4.14364 17.3145 4.42801 17.0942 4.65847C16.7587 5.00964 16.4196 5.36119 16.0513 5.67603C15.5751 6.08306 14.8587 6.02095 14.4118 5.57174C13.9732 5.13112 13.9099 4.41082 14.3118 3.94677C14.6466 3.56045 15.0048 3.18663 15.3962 2.85929C16.1212 2.25305 17.1696 2.62375 17.3954 3.54248C17.4169 3.62959 17.4157 3.72216 17.4247 3.81201Z" fill="#130F26"/>
<path d="M2.52423 3.82727C2.57853 3.28665 2.8211 2.89408 3.30117 2.67924C3.80702 2.45268 4.28357 2.55464 4.68239 2.92455C5.02926 3.24603 5.36285 3.58547 5.66948 3.94523C6.07104 4.41632 6.01557 5.12724 5.57652 5.56942C5.1277 6.02176 4.4074 6.09402 3.94061 5.6745C3.50468 5.28232 3.10625 4.84443 2.72501 4.39796C2.60314 4.2546 2.58829 4.01984 2.52423 3.82727Z" fill="#130F26"/>
<path d="M3.64645 17.4251C3.28669 17.4134 2.90818 17.1833 2.691 16.7302C2.47186 16.2731 2.49725 15.8091 2.83592 15.4228C3.17693 15.0333 3.54489 14.6622 3.9359 14.3232C4.40933 13.9126 5.12611 13.9775 5.57376 14.4279C6.01281 14.8689 6.07609 15.5896 5.67375 16.0524C5.3347 16.4423 4.95697 16.8005 4.57807 17.1528C4.34253 17.3716 4.11597 17.4274 3.64645 17.4251Z" fill="#130F26"/>
<path d="M17.4235 16.1798C17.4098 16.6981 17.1778 17.0883 16.7079 17.309C16.2064 17.5446 15.7271 17.4594 15.3247 17.0915C14.9661 16.7633 14.6208 16.4157 14.3087 16.0438C13.9962 15.672 13.9642 15.2313 14.1689 14.788C14.3806 14.3298 14.747 14.0919 15.2509 14.0618C15.5943 14.0411 15.8958 14.156 16.138 14.3853C16.486 14.7153 16.8173 15.0642 17.1446 15.4149C17.3411 15.6255 17.4255 15.8891 17.4235 16.1798Z" fill="#130F26"/>
<path d="M1.86055 11.2611C1.58204 11.2486 1.29923 11.2619 1.0258 11.2189C0.367997 11.1154 -0.0284796 10.5635 0.00159796 9.95491C0.035191 9.26898 0.550416 8.77056 1.21329 8.75298C1.64844 8.74165 2.08437 8.74204 2.51952 8.75298C3.20505 8.77017 3.74723 9.33344 3.74254 10.0076C3.73746 10.6795 3.18786 11.2322 2.50506 11.2486C2.29062 11.2537 2.07617 11.2494 1.86172 11.2494C1.86094 11.2529 1.86094 11.2568 1.86055 11.2611Z" fill="#130F26"/>
<path d="M18.1161 11.2248C17.8372 11.2248 17.5532 11.2595 17.281 11.2177C16.6462 11.1201 16.2068 10.5564 16.2446 9.93923C16.2845 9.29042 16.806 8.77207 17.4567 8.75332C17.8985 8.74043 18.3411 8.73965 18.7829 8.75371C19.4583 8.7752 19.9957 9.33846 19.9914 10.0006C19.9871 10.6771 19.443 11.2302 18.7598 11.2482C18.5454 11.2541 18.3309 11.249 18.1161 11.249C18.1161 11.2408 18.1161 11.233 18.1161 11.2248Z" fill="#130F26"/>
</svg>
